<?xml version="1.0" encoding="utf-8"?>
<!-- Generator: Adobe Illustrator 16.0.0, SVG Export Plug-In . SVG Version: 6.00 Build 0)  -->
<!DOCTYPE svg PUBLIC "-//W3C//DTD SVG 1.1//EN" "http://www.w3.org/Graphics/SVG/1.1/DTD/svg11.dtd">
<svg version="1.1" xmlns="http://www.w3.org/2000/svg" xmlns:xlink="http://www.w3.org/1999/xlink" x="0px" y="0px" width="170px"
	 height="230.92px" viewBox="0 0 170 230.92" enable-background="new 0 0 170 230.92" xml:space="preserve">
<g id="Layer_1">
	<g>
		<line fill="#8E6400" x1="165" y1="216.92" x2="165" y2="91.92"/>
		<g>
			<path fill="#8E6400" d="M170,216.581c0-41.647,0-83.296,0-124.944c0-5.804-9-5.804-9,0c0,41.648,0,83.296,0,124.944
				C161,222.385,170,222.385,170,216.581L170,216.581z"/>
		</g>
	</g>
	<g>
		<line fill="#8E6400" x1="165.5" y1="91.637" x2="85.338" y2="4.598"/>
		<g>
			<path fill="#8E6400" d="M168.682,88.455c-26.721-29.013-53.441-58.026-80.161-87.04c-3.939-4.277-10.288,2.104-6.364,6.364
				c26.721,29.013,53.441,58.026,80.162,87.04C166.258,99.097,172.605,92.716,168.682,88.455L168.682,88.455z"/>
		</g>
	</g>
	<g>
		<line fill="#8E6400" x1="85.338" y1="4.598" x2="4.807" y2="92.039"/>
		<g>
			<path fill="#8E6400" d="M82.156,1.416C55.313,30.563,28.469,59.71,1.625,88.857c-3.924,4.261,2.425,10.642,6.364,6.364
				C34.833,66.074,61.676,36.927,88.521,7.78C92.444,3.519,86.096-2.862,82.156,1.416L82.156,1.416z"/>
		</g>
	</g>
	<g>
		<line fill="#8E6400" x1="4" y1="91.92" x2="4" y2="225.92"/>
		<g>
			<path fill="#8E6400" d="M0,92.372c0,44.557,0,89.114,0,133.671c0,0.003,0,0.007,0,0.01c0,5.804,9,5.804,9,0
				c0-44.557,0-89.114,0-133.671c0-0.003,0-0.006,0-0.01C9,86.568,0,86.568,0,92.372L0,92.372z"/>
		</g>
	</g>
	<g>
		<line fill="#8E6400" x1="5" y1="226.92" x2="157" y2="226.92"/>
		<g>
			<path fill="#8E6400" d="M4.839,230.92c48.472,0,96.943,0,145.414,0c2.102,0,4.202,0,6.303,0c5.804,0,5.804-9,0-9
				c-48.472,0-96.943,0-145.415,0c-2.101,0-4.202,0-6.302,0C-0.965,221.92-0.965,230.92,4.839,230.92L4.839,230.92z"/>
		</g>
	</g>
</g>
<g id="Layer_2">
	<g>
		<line fill="#8E6400" x1="69" y1="91.92" x2="105" y2="91.92"/>
		<g>
			<path fill="#8E6400" d="M68.822,96.42c11.9,0,23.8,0,35.7,0c6.449,0,6.449-10,0-10c-11.9,0-23.8,0-35.7,0
				C62.373,86.42,62.373,96.42,68.822,96.42L68.822,96.42z"/>
		</g>
	</g>
	<g>
		<line fill="#8E6400" x1="62" y1="103.92" x2="112" y2="103.92"/>
		<g>
			<path fill="#8E6400" d="M61.55,109.059c16.748,0,33.497,0,50.245,0c6.449,0,6.449-10,0-10c-16.748,0-33.497,0-50.245,0
				C55.101,99.059,55.101,109.059,61.55,109.059L61.55,109.059z"/>
		</g>
	</g>
	<g>
		<line fill="#8E6400" x1="55" y1="117.92" x2="118" y2="117.92"/>
		<g>
			<path fill="#8E6400" d="M54.938,122.67c21.156,0,42.311,0,63.467,0c6.449,0,6.449-10,0-10c-21.156,0-42.311,0-63.467,0
				C48.49,112.67,48.49,122.67,54.938,122.67L54.938,122.67z"/>
		</g>
	</g>
	<g>
		<line fill="#8E6400" x1="50" y1="130.92" x2="124" y2="130.92"/>
		<g>
			<path fill="#8E6400" d="M49.65,136.281c24.902,0,49.804,0,74.706,0c6.449,0,6.449-10,0-10c-24.902,0-49.804,0-74.706,0
				C43.201,126.281,43.201,136.281,49.65,136.281L49.65,136.281z"/>
		</g>
	</g>
	<g>
		<line fill="#8E6400" x1="106" y1="196.92" x2="70" y2="196.92"/>
		<g>
			<path fill="#8E6400" d="M105.845,191.42c-11.9,0-23.8,0-35.7,0c-6.449,0-6.449,10,0,10c11.9,0,23.8,0,35.7,0
				C112.293,201.42,112.293,191.42,105.845,191.42L105.845,191.42z"/>
		</g>
	</g>
	<g>
		<line fill="#8E6400" x1="113" y1="183.92" x2="62" y2="183.92"/>
		<g>
			<path fill="#8E6400" d="M113.117,178.753c-16.969,0-33.937,0-50.906,0c-6.449,0-6.449,10,0,10c16.969,0,33.937,0,50.906,0
				C119.565,188.753,119.565,178.753,113.117,178.753L113.117,178.753z"/>
		</g>
	</g>
	<g>
		<line fill="#8E6400" x1="119" y1="169.92" x2="56" y2="169.92"/>
		<g>
			<path fill="#8E6400" d="M119.066,165.17c-20.935,0-41.87,0-62.805,0c-6.449,0-6.449,10,0,10c20.935,0,41.87,0,62.805,0
				C125.515,175.17,125.515,165.17,119.066,165.17L119.066,165.17z"/>
		</g>
	</g>
	<g>
		<line fill="#8E6400" x1="124" y1="156.92" x2="50" y2="156.92"/>
		<g>
			<path fill="#8E6400" d="M124.355,151.559c-24.902,0-49.804,0-74.706,0c-6.449,0-6.449,10,0,10c24.902,0,49.804,0,74.706,0
				C130.804,161.559,130.804,151.559,124.355,151.559L124.355,151.559z"/>
		</g>
	</g>
	<path fill="#8E6400" stroke="#8E6400" stroke-miterlimit="10" d="M126.5,139.42c-26,0-53,0-79,0c-7,0-7,10,0,10
		c0,0,15.638,0,33.752,0c0-1-0.002-0.297-0.002-0.321c0-4.241,2.294-7.804,5.125-7.804s5.125,3.625,5.125,7.866
		c0,0.024-0.002-0.741-0.002,0.259c12.764,0,26.002,0,35.002,0C133.5,149.42,133.5,139.42,126.5,139.42z"/>
</g>
<g id="Layer_3">
	<path display="none" fill="#FCFCFC" d="M85,141.92c-3.547,0-4.981,4.358-4.332,7.928c0.698-0.424,1.559-0.678,2.582-0.678
		c0.951,0,1.759,0.222,2.429,0.593c0.737-0.521,1.673-0.843,2.821-0.843c0.622,0,1.182,0.095,1.684,0.263
		C90.605,145.76,88.88,141.92,85,141.92z"/>
	<g>
	</g>
	<g>
	</g>
	<g>
	</g>
	<g>
	</g>
	<g>
	</g>
	<g>
	</g>
	<g>
	</g>
	<g>
	</g>
	<g>
	</g>
	<g>
	</g>
	<g>
	</g>
	<g>
	</g>
	<g>
	</g>
	<g>
	</g>
	<g>
	</g>
</g>
</svg>
